# xmcd
#
# Track frame offsets:
#	150
#	9872
#	21402
#	35765
#	47242
#	67052
#	78757
#	93957
#	107852
#	119680
#	132990
#
# Disc length: 1986 seconds
#
# Revision: 0
# Processed by: cddbd v1.5.2PL0 Copyright (c) Steve Scherf et al.
# Submitted via: audiograbber 1.83.01
#
DISCID=9307c00b
DTITLE=Wagoneers - Stout And High
DYEAR=1988
DGENRE=Country
TTITLE0=I Confess
TTITLE1=Help Me Get Over You
TTITLE2=So Many Mistakes
TTITLE3=Please Don't Think I'm Guilty
TTITLE4=Stout And High
TTITLE5=I Wanna Know Her Again
TTITLE6=It'll Take Some Time
TTITLE7=Lie And Say You Love Me
TTITLE8=Every Step Of The Way
TTITLE9=Hell Town
TTITLE10=All Nite
EXTD=
EXTT0=
EXTT1=
EXTT2=
EXTT3=
EXTT4=
EXTT5=
EXTT6=
EXTT7=
EXTT8=
EXTT9=
EXTT10=
PLAYORDER=
